<?xml version="1.0" encoding="utf-8"?>
<!-- Generator: Adobe Illustrator 24.1.1, SVG Export Plug-In . SVG Version: 6.00 Build 0)  -->
<svg version="1.1" id="Capa_1" xmlns="http://www.w3.org/2000/svg" xmlns:xlink="http://www.w3.org/1999/xlink" x="0px" y="0px"
	 viewBox="0 0 36.7 36.7" style="enable-background:new 0 0 36.7 36.7;" xml:space="preserve">
<style type="text/css">
	.st0{fill:#FFFFFF;}
</style>
<g>
	<path class="st0" d="M29.7,20.1c0.1,0.2,0.1,0.4,0,0.5L19.4,36.4c-0.1,0.1-0.2,0.2-0.4,0.2c0,0,0,0,0,0c-0.2,0-0.3-0.1-0.4-0.2
		L7,20.6c-0.1-0.1-0.1-0.4,0-0.5c0.1-0.2,0.3-0.3,0.4-0.3h21.9C29.4,19.8,29.6,19.9,29.7,20.1z M7.4,16.9h21.9c0,0,0,0,0,0
		c0.3,0,0.5-0.2,0.5-0.5c0-0.2-0.1-0.3-0.2-0.4L18.1,0.2C18,0.1,17.8,0,17.7,0c-0.2,0-0.3,0.1-0.4,0.2L7,16.1
		c-0.1,0.2-0.1,0.4,0,0.5C7.1,16.8,7.2,16.9,7.4,16.9z"/>
</g>
</svg>
